<svg xmlns="http://www.w3.org/2000/svg" width="21" height="15" viewBox="0 0 21 15">
    <g fill="#122852" fill-rule="evenodd">
        <path d="M.364 7.363c0-.552.455-1 .992-1h18.016c.548 0 .992.444.992 1 0 .552-.455 1-.992 1H1.356c-.548 0-.992-.444-.992-1zM.364 1.363c0-.552.455-1 .992-1h18.016c.548 0 .992.444.992 1 0 .552-.455 1-.992 1H1.356c-.548 0-.992-.444-.992-1zM.364 13.363c0-.552.455-1 .992-1h18.016c.548 0 .992.444.992 1 0 .552-.455 1-.992 1H1.356c-.548 0-.992-.444-.992-1z"/>
    </g>
</svg>
