<svg xmlns="http://www.w3.org/2000/svg" width="39" height="38" viewBox="0 0 39 38">
    <path fill="#122852" fill-rule="evenodd" d="M19.388 0c10.43 0 18.885 8.507 18.885 19s-8.455 19-18.885 19C8.958 38 .503 29.493.503 19S8.958 0 19.388 0zm3.329 11.793H15.53c-1.847 0-3.594 1.751-3.594 3.604v7.206c0 1.853 1.747 3.604 3.594 3.604h7.187c1.847 0 3.593-1.751 3.593-3.604v-7.206c0-1.853-1.746-3.604-3.593-3.604zm0 1.802c.84 0 1.796.96 1.796 1.802v7.206c0 .843-.956 1.802-1.796 1.802H15.53c-.856 0-1.797-.943-1.797-1.802v-7.206c0-.843.957-1.802 1.797-1.802zm-3.594 2.13c-1.801 0-3.267 1.468-3.267 3.275s1.466 3.276 3.267 3.276c1.802 0 3.267-1.47 3.267-3.276 0-1.807-1.465-3.276-3.267-3.276zm0 1.31c1.081 0 1.96.881 1.96 1.965s-.879 1.966-1.96 1.966c-1.08 0-1.96-.882-1.96-1.966s.88-1.966 1.96-1.966zm3.92-2.621c-.36 0-.653.293-.653.655 0 .362.293.655.653.655.361 0 .654-.293.654-.655 0-.362-.293-.655-.654-.655z"/>
</svg>
