<svg xmlns="http://www.w3.org/2000/svg" width="39" height="38" viewBox="0 0 39 38">
    <path fill="#122852" fill-rule="evenodd" d="M19.952 0c10.494 0 19 8.507 19 19s-8.506 19-19 19c-10.493 0-19-8.507-19-19s8.507-19 19-19zm6.491 11.793h-13.07c-.359 0-.628.27-.628.63v13.243c0 .27.27.54.627.54h13.16c.359 0 .627-.27.627-.63V12.424c-.09-.36-.358-.63-.716-.63zm-4.118 5.225c2.148 0 2.507 1.441 2.507 3.243v3.784h-2.06v-3.333c0-.811 0-1.802-1.074-1.802s-1.253.9-1.253 1.802v3.423h-2.149v-6.937h2.06v.901c.268-.54.984-1.08 1.969-1.08zm-5.282.18v6.847h-2.149v-6.847h2.149zm-1.075-3.423c.717 0 1.254.54 1.254 1.261-.09.63-.627 1.261-1.254 1.261-.716 0-1.253-.63-1.253-1.26 0-.721.537-1.262 1.253-1.262z"/>
</svg>
