<svg xmlns="http://www.w3.org/2000/svg" xmlns:xlink="http://www.w3.org/1999/xlink" width="116" height="67" viewBox="0 0 116 67">
    <defs>
        <linearGradient id="prefix__b" x1="4.78%" x2="571.041%" y1="48.058%" y2="81.378%">
            <stop offset="0%" stop-color="#C6C8CA"/>
            <stop offset="100%" stop-color="#87898C"/>
        </linearGradient>
        <linearGradient id="prefix__d" x1="28.498%" x2="163.899%" y1="44.718%" y2="77.995%">
            <stop offset="0%" stop-color="#C6C8CA"/>
            <stop offset="100%" stop-color="#87898C"/>
        </linearGradient>
        <linearGradient id="prefix__f" x1="-98.109%" x2="514.748%" y1="42.499%" y2="75.775%">
            <stop offset="0%" stop-color="#C6C8CA"/>
            <stop offset="100%" stop-color="#87898C"/>
        </linearGradient>
        <linearGradient id="prefix__i" x1="-172.087%" x2="440.663%" y1="38.04%" y2="71.316%">
            <stop offset="0%" stop-color="#C6C8CA"/>
            <stop offset="100%" stop-color="#87898C"/>
        </linearGradient>
        <linearGradient id="prefix__l" x1="-238.057%" x2="359.55%" y1="34.063%" y2="67.295%">
            <stop offset="0%" stop-color="#C6C8CA"/>
            <stop offset="100%" stop-color="#87898C"/>
        </linearGradient>
        <linearGradient id="prefix__o" x1="-355.801%" x2="319.154%" y1="29.275%" y2="62.506%">
            <stop offset="0%" stop-color="#C6C8CA"/>
            <stop offset="100%" stop-color="#87898C"/>
        </linearGradient>
        <linearGradient id="prefix__r" x1="-479.894%" x2="240.705%" y1="24.741%" y2="58.063%">
            <stop offset="0%" stop-color="#C6C8CA"/>
            <stop offset="100%" stop-color="#87898C"/>
        </linearGradient>
        <linearGradient id="prefix__u" x1="-437.447%" x2="128.814%" y1="22.037%" y2="55.357%">
            <stop offset="0%" stop-color="#C6C8CA"/>
            <stop offset="100%" stop-color="#87898C"/>
        </linearGradient>
        <linearGradient id="prefix__x" x1="-548.948%" x2="63.803%" y1="17.573%" y2="50.85%">
            <stop offset="0%" stop-color="#C6C8CA"/>
            <stop offset="100%" stop-color="#87898C"/>
        </linearGradient>
        <linearGradient id="prefix__A" x1="-46.928%" x2="164.903%" y1="45.788%" y2="56.253%">
            <stop offset="0%" stop-color="#C6C8CA"/>
            <stop offset="100%" stop-color="#87898C"/>
        </linearGradient>
        <linearGradient id="prefix__D" x1="10.551%" x2="217.823%" y1="47.462%" y2="57.92%">
            <stop offset="0%" stop-color="#C6C8CA"/>
            <stop offset="100%" stop-color="#87898C"/>
        </linearGradient>
        <linearGradient id="prefix__G" x1="-69.594%" x2="97.689%" y1="47.116%" y2="51.893%">
            <stop offset="0%" stop-color="#C6C8CA"/>
            <stop offset="100%" stop-color="#87898C"/>
        </linearGradient>
        <path id="prefix__a" d="M.016.227v10.966c0 2.498 1.013 3.748 3.039 3.748h7.527v-2.043H3.055c-.277 0-.415-.568-.415-1.705V.227H.016z"/>
        <path id="prefix__e" d="M.375 3.004V14.98h2.533V8.675H9.79V6.633H2.908V3.004c0-.476.23-.715.69-.715h8.242V.406L3.598.247C1.449.247.375 1.166.375 3.004"/>
        <path id="prefix__h" d="M.417 3.004v9.26c0 1.811 1.074 2.716 3.222 2.716l8.196-.158v-1.864H3.639c-.46 0-.69-.231-.69-.694V8.556h6.883V6.672H2.949V3.004c0-.476.23-.715.69-.715h8.241V.406L3.639.247C1.491.247.417 1.166.417 3.004"/>
        <path id="prefix__k" d="M.442 3.38v1.508c.123 1.546 1.381 2.637 3.775 3.271l2.532.694c1.535.383 2.302.899 2.302 1.547v1.189c-.03.926-.974 1.389-2.831 1.389l-5.525-.06v1.884L6.357 15c3.547 0 5.31-1.137 5.295-3.411V10.4c-.015-1.745-1.412-2.928-4.189-3.55l-2.211-.575c-1.412-.33-2.155-.8-2.232-1.407V3.38c0-.726 1.051-1.091 3.154-1.091l4.88.041V.466L6.15.247C2.344.247.442 1.292.442 3.38"/>
        <path id="prefix__n" d="M0.579 0.227L0.579 2.27 5.805 2.27 5.805 14.98 8.383 14.98 8.383 2.27 13.24 2.27 13.24 0.227z"/>
        <path id="prefix__q" d="M11.459 0.267L7.822 7.247 7.177 7.247 3.678 0.267 0.777 0.267 6.049 10.201 6.049 14.98 8.72 14.98 8.72 10.201 14.221 0.267z"/>
        <path id="prefix__t" d="M.792.227v10.966c0 2.498 1.013 3.748 3.038 3.748h7.528v-2.043H3.83c-.276 0-.415-.568-.415-1.705V.227H.792z"/>
        <path id="prefix__w" d="M.906 3.004v9.26c0 1.811 1.074 2.716 3.223 2.716l8.194-.158v-1.864H4.129c-.461 0-.69-.231-.69-.694V8.556h6.882V6.672H3.439V3.004c0-.476.229-.715.69-.715h8.24V.406L4.129.247C1.98.247.906 1.166.906 3.004"/>
        <path id="prefix__z" d="M22.514 3.264l-.01-.008-.068.137c-.197.327-.37.671-.514 1.032-4.213 8.457-8.45 16.902-12.691 25.345v-.043L1.092 45.998l.025-.011c-.143.326-.293.686-.479 1.112l9.956-.012c.618-.266 1.054-.784 1.456-1.6 4.816-9.763 9.72-19.483 14.6-29.216.315-.631.657-1.252 1.19-2.259l.093-.002 1.251 2.481c2.106 4.192 4.21 8.384 6.317 12.576l5.204-10.405c-2.066-4.187-4.101-8.387-6.081-12.615-.362-.774-.732-1.472-1.125-2.09C32.431 1.756 30.286.252 27.815.252c-2.204 0-4.147 1.195-5.301 3.012"/>
        <path id="prefix__C" d="M20.55.242v10.677c2.736 0 5.215.019 7.695-.009.988-.011 1.675.123 1.667 1.401-.038 6.651.043 13.302-.058 19.952-.04 2.663-1.804 4.418-4.29 4.48-4.03.1-8.063.078-12.094.093-1.694.007-3.323-.699-3.731-2.264-.68-2.613-2.347-2.627-4.372-2.478-1.338.1-2.687.066-4.03.046-1.071-.015-1.352.514-1.336 1.527.102 6.705 6.048 13.006 12.654 13.454l13.249-.017 13.354-26.699c.003-6.065-.015-12.13-.021-18.194 0-.576 0-1.447-.013-1.948-6.293 0-12.52-.021-18.674-.021z"/>
        <path id="prefix__F" d="M37.934 3.358L37.4 4.425c-.045.114-.09.229-.129.346-2.713 5.437-5.449 10.866-8.192 16.291l-8.368 16.731-.076-.038-.013.028c-4.367.024-8.733.054-13.099.097-.825.008-2.066.283-2.394.85-1.502 2.6-2.748 5.349-4.237 8.347.35.012.667.026.96.037l24.149-.027c.617-.268 1.052-.785 1.453-1.6 4.816-9.763 9.72-19.483 14.6-29.216.317-.632.659-1.253 1.192-2.259l.047.001.047-.001 1.25 2.479c3.561 7.091 7.114 14.186 10.691 21.27-5.837.028-11.672.063-17.507.119-.824.008-2.066.283-2.393.85-1.503 2.6-2.749 5.349-4.237 8.347.424.015.801.031 1.146.045l13.575-.016c4.985-.031 9.971-.063 14.956-.062.033.007.068.014.101.015.166.011.331.02.498.029l8.833-.011c-.447-.985-.744-1.691-1.084-2.373-6.417-12.868-13.045-25.637-19.14-38.657-.276-.589-.557-1.134-.849-1.634-.981-2.447-3.248-4.161-5.887-4.161-2.241 0-4.214 1.236-5.359 3.106"/>
    </defs>
    <g fill="none" fill-rule="evenodd">
        <g transform="translate(0 51.757)">
            <mask id="prefix__c" fill="#fff">
                <use xlink:href="#prefix__a"/>
            </mask>
            <path fill="url(#prefix__b)" d="M.016.227v10.966c0 2.498 1.013 3.748 3.039 3.748h7.527v-2.043H3.055c-.277 0-.415-.568-.415-1.705V.227H.016z" mask="url(#prefix__c)"/>
        </g>
        <path fill="url(#prefix__d)" d="M13.212 66.737L15.745 66.737 15.745 52.004 13.212 52.004z"/>
        <g transform="translate(18 51.757)">
            <mask id="prefix__g" fill="#fff">
                <use xlink:href="#prefix__e"/>
            </mask>
            <path fill="url(#prefix__f)" d="M.375 3.004V14.98h2.533V8.675H9.79V6.633H2.908V3.004c0-.476.23-.715.69-.715h8.242V.406L3.598.247C1.449.247.375 1.166.375 3.004" mask="url(#prefix__g)"/>
        </g>
        <g transform="translate(32 51.757)">
            <mask id="prefix__j" fill="#fff">
                <use xlink:href="#prefix__h"/>
            </mask>
            <path fill="url(#prefix__i)" d="M.417 3.004v9.26c0 1.811 1.074 2.716 3.222 2.716l8.196-.158v-1.864H3.639c-.46 0-.69-.231-.69-.694V8.556h6.883V6.672H2.949V3.004c0-.476.23-.715.69-.715h8.241V.406L3.639.247C1.491.247.417 1.166.417 3.004" mask="url(#prefix__j)"/>
        </g>
        <g transform="translate(46 51.757)">
            <mask id="prefix__m" fill="#fff">
                <use xlink:href="#prefix__k"/>
            </mask>
            <path fill="url(#prefix__l)" d="M.442 3.38v1.508c.123 1.546 1.381 2.637 3.775 3.271l2.532.694c1.535.383 2.302.899 2.302 1.547v1.189c-.03.926-.974 1.389-2.831 1.389l-5.525-.06v1.884L6.357 15c3.547 0 5.31-1.137 5.295-3.411V10.4c-.015-1.745-1.412-2.928-4.189-3.55l-2.211-.575c-1.412-.33-2.155-.8-2.232-1.407V3.38c0-.726 1.051-1.091 3.154-1.091l4.88.041V.466L6.15.247C2.344.247.442 1.292.442 3.38" mask="url(#prefix__m)"/>
        </g>
        <g transform="translate(59 51.757)">
            <mask id="prefix__p" fill="#fff">
                <use xlink:href="#prefix__n"/>
            </mask>
            <path fill="url(#prefix__o)" d="M0.579 0.227L0.579 2.27 5.805 2.27 5.805 14.98 8.383 14.98 8.383 2.27 13.24 2.27 13.24 0.227z" mask="url(#prefix__p)"/>
        </g>
        <g transform="translate(74 51.757)">
            <mask id="prefix__s" fill="#fff">
                <use xlink:href="#prefix__q"/>
            </mask>
            <path fill="url(#prefix__r)" d="M11.459 0.267L7.822 7.247 7.177 7.247 3.678 0.267 0.777 0.267 6.049 10.201 6.049 14.98 8.72 14.98 8.72 10.201 14.221 0.267z" mask="url(#prefix__s)"/>
        </g>
        <g transform="translate(90 51.757)">
            <mask id="prefix__v" fill="#fff">
                <use xlink:href="#prefix__t"/>
            </mask>
            <path fill="url(#prefix__u)" d="M.792.227v10.966c0 2.498 1.013 3.748 3.038 3.748h7.528v-2.043H3.83c-.276 0-.415-.568-.415-1.705V.227H.792z" mask="url(#prefix__v)"/>
        </g>
        <g transform="translate(103 51.757)">
            <mask id="prefix__y" fill="#fff">
                <use xlink:href="#prefix__w"/>
            </mask>
            <path fill="url(#prefix__x)" d="M.906 3.004v9.26c0 1.811 1.074 2.716 3.223 2.716l8.194-.158v-1.864H4.129c-.461 0-.69-.231-.69-.694V8.556h6.882V6.672H3.439V3.004c0-.476.229-.715.69-.715h8.24V.406L4.129.247C1.98.247.906 1.166.906 3.004" mask="url(#prefix__y)"/>
        </g>
        <g transform="translate(30 .757)">
            <mask id="prefix__B" fill="#fff">
                <use xlink:href="#prefix__z"/>
            </mask>
            <path fill="url(#prefix__A)" d="M22.514 3.264l-.01-.008-.068.137c-.197.327-.37.671-.514 1.032-4.213 8.457-8.45 16.902-12.691 25.345v-.043L1.092 45.998l.025-.011c-.143.326-.293.686-.479 1.112l9.956-.012c.618-.266 1.054-.784 1.456-1.6 4.816-9.763 9.72-19.483 14.6-29.216.315-.631.657-1.252 1.19-2.259l.093-.002 1.251 2.481c2.106 4.192 4.21 8.384 6.317 12.576l5.204-10.405c-2.066-4.187-4.101-8.387-6.081-12.615-.362-.774-.732-1.472-1.125-2.09C32.431 1.756 30.286.252 27.815.252c-2.204 0-4.147 1.195-5.301 3.012" mask="url(#prefix__B)"/>
        </g>
        <g transform="translate(0 .757)">
            <mask id="prefix__E" fill="#fff">
                <use xlink:href="#prefix__C"/>
            </mask>
            <path fill="url(#prefix__D)" d="M20.55.242v10.677c2.736 0 5.215.019 7.695-.009.988-.011 1.675.123 1.667 1.401-.038 6.651.043 13.302-.058 19.952-.04 2.663-1.804 4.418-4.29 4.48-4.03.1-8.063.078-12.094.093-1.694.007-3.323-.699-3.731-2.264-.68-2.613-2.347-2.627-4.372-2.478-1.338.1-2.687.066-4.03.046-1.071-.015-1.352.514-1.336 1.527.102 6.705 6.048 13.006 12.654 13.454l13.249-.017 13.354-26.699c.003-6.065-.015-12.13-.021-18.194 0-.576 0-1.447-.013-1.948-6.293 0-12.52-.021-18.674-.021z" mask="url(#prefix__E)"/>
        </g>
        <g transform="translate(45 .757)">
            <mask id="prefix__H" fill="#fff">
                <use xlink:href="#prefix__F"/>
            </mask>
            <path fill="url(#prefix__G)" d="M37.934 3.358L37.4 4.425c-.045.114-.09.229-.129.346-2.713 5.437-5.449 10.866-8.192 16.291l-8.368 16.731-.076-.038-.013.028c-4.367.024-8.733.054-13.099.097-.825.008-2.066.283-2.394.85-1.502 2.6-2.748 5.349-4.237 8.347.35.012.667.026.96.037l24.149-.027c.617-.268 1.052-.785 1.453-1.6 4.816-9.763 9.72-19.483 14.6-29.216.317-.632.659-1.253 1.192-2.259l.047.001.047-.001 1.25 2.479c3.561 7.091 7.114 14.186 10.691 21.27-5.837.028-11.672.063-17.507.119-.824.008-2.066.283-2.393.85-1.503 2.6-2.749 5.349-4.237 8.347.424.015.801.031 1.146.045l13.575-.016c4.985-.031 9.971-.063 14.956-.062.033.007.068.014.101.015.166.011.331.02.498.029l8.833-.011c-.447-.985-.744-1.691-1.084-2.373-6.417-12.868-13.045-25.637-19.14-38.657-.276-.589-.557-1.134-.849-1.634-.981-2.447-3.248-4.161-5.887-4.161-2.241 0-4.214 1.236-5.359 3.106" mask="url(#prefix__H)"/>
        </g>
    </g>
</svg>
