<svg xmlns="http://www.w3.org/2000/svg" width="38" height="38" viewBox="0 0 38 38">
    <path fill="#122852" fill-rule="evenodd" d="M18.895 0C29.325 0 37.78 8.507 37.78 19s-8.455 19-18.885 19C8.465 38 .01 29.493.01 19S8.465 0 18.895 0zm2.825 13.103c-1.628 0-2.949 1.363-2.949 3.043 0 .238.027.471.077.693-2.45-.127-4.623-1.34-6.078-3.18-.254.45-.399.973-.399 1.532 0 1.055.52 1.985 1.312 2.53-.485-.015-.939-.15-1.336-.38v.039c0 1.474 1.016 2.703 2.365 2.984-.248.07-.507.106-.776.106-.191 0-.376-.018-.556-.054.376 1.207 1.464 2.09 2.754 2.112-1.007.818-2.28 1.302-3.662 1.302-.24 0-.472-.014-.702-.04 1.303.862 2.855 1.364 4.52 1.364 5.424 0 8.39-4.636 8.39-8.655 0-.133-.002-.265-.008-.396.577-.425 1.077-.962 1.472-1.573-.529.242-1.097.405-1.694.48.608-.378 1.077-.974 1.297-1.685-.57.349-1.203.603-1.874.738-.538-.59-1.303-.96-2.153-.96z"/>
</svg>
