<svg xmlns="http://www.w3.org/2000/svg" width="736" height="395" viewBox="0 0 736 395">
    <path fill="#EEE" fill-rule="evenodd" d="M336.3 95.591l.06-1.442c.017-.403.349-.72.751-.72.462 0 .904-.184 1.23-.51l.48-.48c.633-.634 1.492-.99 2.388-.99h.766c.435 0 .788.353.788.789 0 .502-.21.982-.577 1.325l-1.911 1.776c-.359.333-.562.8-.562 1.29 0 .423.343.766.767.766h.93c.747 0 1.353.606 1.353 1.354 0 .861-.366 1.682-1.007 2.258l-.953.857c-.228.204-.259.55-.07.791l.163.21c.114.146.236.285.366.416l5.384 5.439c.772.78 1.206 1.833 1.206 2.931v.189c0 .842.682 1.524 1.524 1.524h.472c.582 0 1.053.472 1.053 1.054 0 .669-.293 1.303-.803 1.736l-.225.192c-.652.554-1.028 1.367-1.028 2.223v.146c0 .825-.67 1.495-1.495 1.495h-7.058c-.95 0-1.865.352-2.57.99l-.5.452c-.383.346-.879.537-1.394.537-.19 0-.344-.154-.344-.344 0-.088.034-.173.095-.237l4.056-4.28c.244-.258.233-.665-.025-.909-.12-.113-.277-.176-.442-.176-.825 0-1.494-.669-1.494-1.494v-2.715c0-.415.336-.751.751-.751.483 0 .949-.183 1.303-.512l.635-.59c.528-.49.558-1.314.069-1.842-.022-.023-.045-.046-.069-.068l-.043-.04c-.633-.588-1.465-.915-2.33-.915-.742 0-1.344-.602-1.344-1.345v-2.318c0-1.15-.478-2.248-1.319-3.032l-.167-.156c-.614-.573-.648-1.536-.075-2.15l.036-.037c.715-.717 1.135-1.675 1.178-2.687zm-8.958 19.85c.275 0 .498-.222.498-.498 0-.11-.036-.216-.103-.303l-.435-.566c-.63-.819-.971-1.823-.971-2.857v-1.689c0-.437.354-.792.791-.792.513 0 1.009-.177 1.406-.5l.56-.458c.758-.62 1.708-.959 2.688-.959h.359c1.035 0 1.874.84 1.874 1.874v3.644c0 1.145-.42 2.25-1.178 3.107l-1.267 1.431c-.829.936-2.018 1.471-3.268 1.471h-.513c-.802 0-1.452-.65-1.452-1.452v-.44c0-.56.453-1.012 1.011-1.012zm-56.95 159.396l-7.139 6.992c-.9.882-1.408 2.089-1.408 3.349v12.235c0 1.223-.478 2.398-1.332 3.274l-2.819 2.888c-.882.904-2.091 1.414-3.354 1.414h-2.182c-1.248 0-2.445.498-3.325 1.383l-6.535 6.577c-.872.878-1.362 2.066-1.362 3.304v2.273c0 1.235-.488 2.42-1.357 3.299l-4.253 4.292c-.87.878-1.357 2.064-1.357 3.299v2.223c0 1.18-.445 2.317-1.246 3.183l-1.534 1.658c-.887.96-2.134 1.505-3.441 1.505h-3.219c-1.185 0-2.145.96-2.145 2.145 0 .578.233 1.132.646 1.535l1.591 1.554c1.244 1.214 1.267 3.205.053 4.449l-.067.067-.974.938c-.873.842-2.04 1.313-3.253 1.313h-2.318c-2.212 0-4.005 1.793-4.005 4.004v1.016c0 1.65-1.338 2.99-2.989 2.99-1.65 0-2.988 1.337-2.988 2.988v2.583c0 1.276-.52 2.496-1.44 3.38l-1.24 1.193c-.833.8-1.303 1.903-1.303 3.057 0 .997.809 1.806 1.806 1.806h.608c.866 0 1.569.702 1.569 1.568 0 1.009-.378 1.98-1.06 2.725l-4.678 5.111c-.79.864-1.23 1.994-1.23 3.165v1.313c0 1.23.484 2.412 1.348 3.288l1.702 1.73c.705.716.696 1.869-.02 2.574-.341.335-.8.523-1.278.523h-5.191c-1.179 0-2.314-.444-3.18-1.243l-3.82-3.525c-.96-.888-1.507-2.136-1.507-3.445v-14.43c0-1.23.484-2.412 1.347-3.289l1.287-1.306c.864-.877 1.348-2.059 1.348-3.29v-5.978c0-.276-.223-.499-.499-.499s-.499.223-.499.499v3.011c0 .824-.668 1.493-1.492 1.493s-1.492-.669-1.492-1.493v-1.457c0-1.196.457-2.347 1.278-3.217l.428-.453c.82-.87 1.278-2.021 1.278-3.218v-13.63c0-1.434.657-2.79 1.782-3.678l.418-.33c1.126-.89 1.782-2.245 1.782-3.679v-36.677c0-1.326-.561-2.59-1.546-3.479l-3.874-3.498c-.985-.889-1.546-2.153-1.546-3.479v-5.876c0-1.223-.479-2.398-1.333-3.273l-12.232-12.536c-.854-.875-1.333-2.05-1.333-3.273v-7.844c0-1.226.48-2.403 1.338-3.279l7.277-7.436c.857-.876 1.337-2.053 1.337-3.279v-4.243c0-2.59-2.099-4.688-4.688-4.688h-5.508c-1.135 0-2.23-.411-3.085-1.158l-.79-.69c-.854-.747-1.95-1.158-3.085-1.158h-.003c-.974 0-1.764-.79-1.764-1.764v-1.087c0-1.194-.455-2.342-1.273-3.212l-.435-.462c-.886-.942-2.121-1.476-3.414-1.476h-1.341c-1.222 0-2.395-.477-3.27-1.33l-5.485-5.341c-.875-.853-2.048-1.33-3.27-1.33h-8.742c-1.25 0-2.449-.5-3.329-1.387l-6.934-6.997c-.87-.878-1.358-2.064-1.358-3.3v-1.71c0-1.248-.498-2.445-1.383-3.325l-6.18-6.141c-.885-.88-1.382-2.077-1.382-3.325v-.05c0-1.274-.535-2.49-1.475-3.352l-7.403-6.79c-.453-.415-1.045-.645-1.659-.645-.198 0-.36.161-.36.36 0 .103.045.202.123.27l3.21 2.818c1.013.89 1.594 2.172 1.594 3.52V181c0 .668.261 1.31.727 1.79l.707.726.04.042 4.2 4.212c.271.271.27.71-.001.982-.13.13-.307.202-.49.202-1.079 0-2.12-.391-2.932-1.102l-3.127-2.739c-.854-.749-1.952-1.161-3.088-1.161h-.125c-1.043 0-1.888-.845-1.888-1.888v-2.993c0-1.163-.433-2.284-1.213-3.146l-1.557-1.719c-.78-.862-1.213-1.983-1.213-3.146v-4.232c0-1.022-.828-1.85-1.849-1.85-1.182 0-2.314-.478-3.137-1.327l-3.642-3.754c-.849-.875-1.323-2.046-1.323-3.264v-.943c0-1.305-.545-2.551-1.502-3.439l-.979-.906c-.957-.887-1.502-2.133-1.502-3.439v-23.868c0-.58.47-1.05 1.05-1.05.665 0 1.296.294 1.725.803l.266.316c.19.226.526.254.752.065.12-.102.19-.251.19-.409v-.481c0-1.243-.504-2.432-1.396-3.297l-3.795-3.676c-.874-.848-2.044-1.321-3.262-1.321h-1.593c-1.06 0-1.919-.86-1.919-1.918 0-1.229-.486-2.408-1.352-3.279l-7.78-7.83c-.629-.632-1.484-.987-2.376-.987-.77 0-1.393-.624-1.393-1.394v-6.259c0-1.3-1.054-2.352-2.353-2.352h-.32c-1.297 0-2.535-.537-3.421-1.483l-2.839-3.03c-.886-.947-2.124-1.484-3.42-1.484h-9.097c-1.26 0-2.468-.508-3.35-1.409l-.32-.328c-.795-.812-1.883-1.27-3.019-1.27h-.273c-.83 0-1.503.674-1.503 1.504v.011c0 .824.668 1.492 1.492 1.492.07 0 .126.057.126.127 0 .061-.044.114-.105.124l-2.801.477c-1.012.173-1.938.672-2.639 1.422l-2.274 2.435c-.301.323-.807.34-1.13.039l-.015-.014c-.374-.368-.584-.87-.584-1.395v-.826c0-1.059.394-2.08 1.105-2.865l1.075-1.186c.518-.57.804-1.313.804-2.083 0-.286-.232-.518-.518-.518-.131 0-.258.05-.354.14l-2.146 2.015-.02.018-2.629 2.497c-.83.789-1.3 1.883-1.3 3.028 0 1.148-.454 2.25-1.263 3.065l-6.066 6.112c-.88.886-2.078 1.385-3.327 1.385h-.217c-1.31 0-2.56.548-3.447 1.511l-2.802 3.041c-.88.954-2.117 1.496-3.413 1.496-.476 0-.862-.386-.862-.862 0-.224.087-.439.242-.6l4.945-5.11c.883-.913 2.099-1.428 3.369-1.428h.334c1.265 0 2.477-.512 3.36-1.42l1.785-1.835c.624-.642.61-1.668-.032-2.291-.302-.295-.708-.46-1.13-.46h-1.916c-1.223 0-2.388.517-3.21 1.422-.275.303-.744.326-1.047.05-.155-.14-.243-.34-.243-.548v-1.982c0-1.663-1.348-3.01-3.01-3.01h-.51c-1.381 0-2.5-1.12-2.5-2.502v-.519c0-1.095-.888-1.982-1.983-1.982H.968c-.535 0-.968-.433-.968-.968 0-.619.25-1.211.693-1.643l2.104-2.053c.876-.854 2.05-1.332 3.274-1.332h1.414c1.381 0 2.501-1.12 2.501-2.502 0-1.381-1.12-2.5-2.501-2.5H2.35c-1.298 0-2.35-1.053-2.35-2.35v-.594c0-1.116.485-2.176 1.329-2.906l.532-.46c.514-.445 1.17-.69 1.85-.69.68 0 1.337.246 1.85.692l1.875 1.629c.384.334.967.293 1.3-.091.146-.168.226-.383.226-.605v-.06c0-1.255-.503-2.458-1.396-3.338l-5.612-5.534c-.612-.604-.956-1.427-.956-2.287 0-.742.601-1.343 1.343-1.343h.54c1.201 0 2.348-.501 3.164-1.383l3.814-4.121c.887-.959 2.134-1.503 3.44-1.503h8.276c1.378 0 2.686.606 3.577 1.657l.58.685c.891 1.052 2.2 1.658 3.577 1.658h19.964c1.21 0 2.374.468 3.247 1.307l5.605 5.386c.873.839 2.037 1.307 3.248 1.307h.229c1.168 0 2.115-.947 2.115-2.115v-.31c0-1.205.465-2.364 1.296-3.236l.88-.922c.885-.927 2.11-1.452 3.392-1.452h5.914c.994 0 1.956.356 2.71 1.003.755.646 1.717 1.002 2.71 1.002h.038c.345 0 .624-.28.624-.624 0-.173-.071-.337-.197-.455l-.77-.722c-.28-.262-.294-.7-.032-.978.13-.14.313-.22.504-.22 1.123 0 2.202.437 3.009 1.218l2.54 2.458c.874.846 2.043 1.319 3.26 1.319h13.94c1.671 0 3.025 1.354 3.025 3.024s1.354 3.024 3.024 3.024h2.6c.741 0 1.343-.602 1.343-1.344 0-.32.26-.58.58-.58.147 0 .29.057.397.159l2.12 2.001c.696.658 1.793.626 2.45-.07.304-.322.474-.748.474-1.19V57.71c0-1.516 1.228-2.744 2.743-2.744h.877c1.199 0 2.352.46 3.223 1.284l.454.43c.87.824 2.024 1.284 3.223 1.284h9.008c1.232 0 2.415-.485 3.292-1.35l3.645-3.597c.673-.664.68-1.747.017-2.42l-.02-.02c-.678-.664-.689-1.75-.025-2.427l.017-.017 1.253-1.243c1.293-1.283 3.38-1.282 4.672.002l1.05 1.044c.702.697.706 1.83.009 2.532l-.014.014c-.705.694-.714 1.828-.02 2.532l.014.014 2.185 2.172c.83.826 2.172.823 2.999-.005l.59-.591c.502-.503 1.315-.507 1.822-.01.505.496.513 1.307.018 1.812l-.002.001-.205.21c-.605.614-.597 1.602.018 2.207l.01.01 1.461 1.411c.915.883 1.431 2.1 1.431 3.372v.692c0 1.253-.501 2.453-1.392 3.334l-9.27 9.162-.024.023-2.872 2.799c-.906.882-1.416 2.093-1.416 3.357v4.991c0 1.1.891 1.991 1.99 1.991 1.1 0 1.992.892 1.992 1.991v.01c0 1.104.895 2 2 2h1.957c1.172 0 2.302.44 3.167 1.231l6.042 5.538c.865.792 1.995 1.231 3.167 1.231h2.84c1.543 0 2.794 1.252 2.794 2.795v.834c0 1.255.503 2.457 1.397 3.338l2.01 1.983c.973.96 2.535.96 3.509.001.95-.936.962-2.465.026-3.415l-.034-.033-.683-.667c-.79-.772-1.236-1.83-1.236-2.935 0-1.106.443-2.165 1.23-2.941l1.56-1.536c1.507-1.487 1.524-3.914.038-5.422l-.02-.02-.64-.64c-1.155-1.155-1.157-3.027-.005-4.185l.488-.49c.869-.873.866-2.285-.007-3.153l-.025-.025-.197-.19c-.916-.883-1.433-2.1-1.433-3.373v-.986c0-1.644 1.333-2.976 2.977-2.976h6.748c1.231 0 2.413.484 3.29 1.348l1.322 1.304c.877.864 2.059 1.348 3.29 1.348h.182c1.161 0 2.103.942 2.103 2.103v.963c0 1.21.467 2.372 1.304 3.245l.846.882c1.144 1.192 3.037 1.232 4.23.088.027-.026.054-.052.08-.08l2.965-3.066c.348-.36.922-.37 1.282-.022.177.171.277.406.277.652v.205c0 1.3.539 2.54 1.489 3.427l1.993 1.86c.95.886 1.489 2.128 1.489 3.427v.624c0 1.47 1.191 2.661 2.661 2.661h3.701c1.403 0 2.54 1.137 2.54 2.54v.925c0 1.047.352 2.063.998 2.885.646.823.998 1.84.998 2.886v.614c0 1.23-.998 2.229-2.23 2.229h-.866c-1.24 0-2.43.49-3.308 1.366l-.267.266c-.878.875-2.068 1.366-3.307 1.366h-9.683c-1.246 0-2.44.495-3.32 1.377l-6.894 6.913c-.643.644-1.004 1.517-1.004 2.428 0 .345.28.626.626.626.157 0 .308-.059.423-.165l6.502-5.95c.864-.79 1.993-1.229 3.164-1.229h1.327c1.587 0 2.873 1.286 2.873 2.873v1.261c0 1.045.349 2.059.99 2.882l.006.008c.642.823.99 1.837.99 2.882v.242c0 1.023-.829 1.853-1.852 1.853h-4.609c-.83 0-1.503.673-1.503 1.503 0 .83-.673 1.504-1.503 1.504h-1.35c-1.256 0-2.46.503-3.34 1.398l-.424.43c-.864.877-1.348 2.058-1.348 3.289v.51c0 1.212-.47 2.377-1.31 3.25l-2.004 2.08-.029.03-2.917 3.084-.07.076-.787.869c-.529.584-.821 1.343-.821 2.13v2.842c0 .551-.447.998-.998.998-.551 0-.998-.447-.998-.998v-2.018c0-.316-.256-.571-.57-.571-.164 0-.32.07-.428.192l-.154.173c-.543.612-.843 1.402-.843 2.22 0 .814.32 1.595.892 2.174l.105.107c.64.648.998 1.521.998 2.431v.411c0 1.17-.476 2.291-1.318 3.104l-7.21 6.962c-.915.883-1.432 2.1-1.432 3.372v1.816c0 .619.123 1.232.36 1.803l1.274 3.055c.239.572.361 1.185.361 1.804v3.153c0 1.004-.814 1.819-1.819 1.819-1.17 0-2.296-.44-3.156-1.233l-1.595-1.47c-.872-.805-1.368-1.938-1.368-3.125v-.17c0-1.093-.383-2.152-1.081-2.994l-1.1-1.324c-.891-1.073-2.213-1.694-3.607-1.694h-5.26c-.486 0-.88.394-.88.88 0 .232.092.455.256.62.342.344.34.901-.005 1.243-.165.164-.387.255-.62.255h-2.115c-1.155 0-2.269-.426-3.128-1.196l-.676-.605c-.86-.77-1.973-1.197-3.128-1.197h-.992c-1.435 0-2.791.658-3.68 1.785l-2.867 3.635c-.652.827-1.007 1.85-1.007 2.902v14.358c0 1.26.508 2.467 1.408 3.349l3.711 3.633c.876.858 2.053 1.339 3.28 1.339h3.683c1.241 0 2.432-.493 3.31-1.369l3.285-3.276c.874-.87 2.057-1.36 3.29-1.36 1.065 0 1.927.862 1.927 1.926v6.07c0 1.663 1.348 3.011 3.01 3.011 1.664 0 3.011 1.348 3.011 3.01v8.105c0 1.318.556 2.576 1.53 3.464l1.309 1.193c.863.787 1.989 1.223 3.157 1.223h5.11c1.177 0 2.31-.443 3.176-1.24l1.733-1.595c.813-.75 1.88-1.165 2.985-1.165 1.085 0 2.107-.505 2.766-1.366l.03-.038c.2-.263.577-.313.84-.112.148.114.235.29.235.476v3.548c0 .824.668 1.492 1.492 1.492s1.492-.668 1.492-1.492v-1.863c0-.905.734-1.639 1.639-1.639 1.052 0 2.065.402 2.831 1.124l.636.599c.87.819 2.02 1.275 3.214 1.275h5.257c1.206 0 2.367.465 3.239 1.3l4.507 4.308.017.016 3.263 3.09c.87.823 2.024 1.282 3.222 1.282h8.322c1.247 0 2.443.497 3.322 1.38l.985.99c.874.878 1.365 2.067 1.365 3.307v5.167c0 1.204.463 2.36 1.292 3.232l1.434 1.507c.885.93 2.112 1.455 3.396 1.455h1.409c1.888 0 3.419 1.531 3.419 3.42v.08c0 1.932 1.566 3.499 3.499 3.499h3.794c1.178 0 2.313.444 3.18 1.243l2.724 2.516c.866.8 2.002 1.243 3.18 1.243h1.844c2.028 0 3.671 1.644 3.671 3.671v.006l-.008 4.812c-.002 1.257-.51 2.461-1.407 3.341zm-86.364-75.622c-.134-.14-.129-.36.01-.494.066-.062.152-.097.242-.097h.152c.23 0 .417-.187.417-.417 0-.107-.041-.21-.114-.287l-1.714-1.808c-.56-.59-1.338-.926-2.153-.926s-1.594-.333-2.157-.923l-.114-.12c-.635-.666-1.516-1.042-2.437-1.042h-4.388c-.562 0-1.018-.456-1.018-1.019 0-.226.075-.446.214-.624.805-1.037 2.043-1.643 3.355-1.643h1.333c.808 0 1.58.332 2.137.918.557.586 1.33.917 2.138.917h1.128c1.285 0 2.513.528 3.398 1.459l2.791 2.938c.77.81 1.84 1.27 2.96 1.27h.507c.687 0 1.244.557 1.244 1.244 0 .687-.557 1.244-1.244 1.244h-5.304c-.522 0-1.022-.213-1.383-.59zm1.363 4.433h-.47c-.757 0-1.488-.273-2.058-.769-.183-.158-.203-.435-.044-.617.083-.096.204-.151.33-.151h.416c.77 0 1.517.272 2.106.768.184.155.208.43.053.614-.083.098-.205.155-.333.155zm9.023-2.023c-.235-.253-.221-.649.032-.884.115-.107.267-.167.425-.167h5.024c.49 0 .958.204 1.291.564l.012.013c.326.352.783.552 1.262.552.48 0 .937.2 1.262.551l.39.421c.217.235.203.601-.031.819-.108.099-.248.154-.394.154h-9.946c-.463 0-.91-.174-1.251-.486-.114-.105-.122-.282-.017-.396.053-.058.128-.09.206-.09h1.277c.345 0 .625-.28.625-.626 0-.158-.06-.31-.167-.425zm84.54-137.283l-4.35 4.299c-.877.867-2.061 1.354-3.295 1.354h-2.01c-1.279 0-2.502.522-3.386 1.446l-1.325 1.383c-.835.873-1.301 2.034-1.301 3.242v1.39c0 1.167-.436 2.293-1.223 3.157l-.553.607c-.787.863-1.223 1.989-1.223 3.157v5.584c0 1.671-1.354 3.025-3.025 3.025h-1.188c-1.18 0-2.318-.445-3.185-1.247l-1.73-1.603c-.816-.755-1.886-1.174-2.998-1.174-1.105 0-2.163-.446-2.936-1.237l-3.479-3.563c-1.299-1.33-1.307-3.451-.019-4.792l.392-.407c1.073-1.117 1.073-2.88.001-3.998l-.569-.593c-.862-.898-2.053-1.406-3.298-1.406-1.077 0-1.95-.873-1.95-1.95v-3.81c0-1.286.528-2.515 1.46-3.4l1.847-1.753c1.797-1.708 1.87-4.549.163-6.347l-.048-.05-3.78-3.859c-.145-.148-.383-.15-.531-.005-.072.07-.113.167-.113.268 0 .508-.412.92-.92.92h-.58c-.827 0-1.499-.672-1.499-1.5v-7.532c0-1.342-.575-2.62-1.58-3.51l-5.982-5.299c-.858-.759-1.963-1.178-3.108-1.178h-7.903c-1.172 0-2.303.44-3.167 1.232l-.385.353c-.965.885-2.457.85-3.38-.08l-8.65-8.727c-.874-.883-.87-2.307.008-3.186l.218-.217c.879-.879 2.07-1.372 3.313-1.372h8.07c1.187 0 2.33-.45 3.198-1.26l.227-.212c.65-.605.685-1.621.08-2.27-.028-.03-.056-.057-.085-.084-.817-.755-1.888-1.175-3-1.175h-.694c-.574 0-1.04-.465-1.04-1.039 0-.267.103-.523.287-.716l3.606-3.786c.885-.93 2.112-1.455 3.394-1.455h2.113c1.235 0 2.421-.488 3.299-1.358l.293-.29c.878-.87 2.063-1.358 3.299-1.358h10.997c1.221 0 2.394.477 3.27 1.329l.955.93c.541.527 1.407.515 1.933-.026.249-.255.388-.597.388-.954v-.018c0-1.798 1.458-3.256 3.256-3.256h2.872c.68 0 1.349-.172 1.944-.5.595-.33 1.264-.502 1.944-.502h6.962c1.273 0 2.491-.518 3.375-1.435l1.055-1.094C264.568.518 265.787 0 267.06 0h15.22c1.105 0 2 .895 2 2 0 1.104.895 1.999 2 1.999h7.286c1.196 0 2.347.457 3.217 1.279l1.295 1.221c.581.55.608 1.465.059 2.047-.274.29-.655.454-1.053.454h-10.57c-.487 0-.958.178-1.322.5-.119.106-.13.287-.025.405.054.062.132.097.214.097h8.148c1.531 0 2.773 1.241 2.773 2.772 0 .614.497 1.112 1.112 1.112.303 0 .594-.124.803-.344l2.957-3.093c.885-.926 2.109-1.45 3.389-1.45h4.87c1.14 0 2.24-.415 3.096-1.168l.75-.66c.856-.753 1.957-1.168 3.097-1.168h1.594c1.28 0 2.504.523 3.388 1.448l1.383 1.447c.721.755.726 1.941.011 2.702-.813.865-1.948 1.356-3.136 1.356h-1.661c-1.216 0-2.385.472-3.26 1.318l-6.966 6.74c-.913.883-1.428 2.099-1.428 3.369v2.071c0 .83.673 1.504 1.504 1.504.83 0 1.504.673 1.504 1.504v.496c0 1.104-.895 2-2 2h-1.505c-1.935 0-3.504 1.568-3.504 3.504v2.407c0 1.196-.457 2.346-1.277 3.216l-2.053 2.177c-.694.737-1.854.771-2.591.077l-.047-.046-.388-.392c-.606-.614-1.433-.96-2.296-.96-.744 0-1.348.604-1.348 1.349v.65c0 1.105.895 2 2 2h3.192c1.552 0 2.811 1.26 2.811 2.812v.865c0 1.246-.496 2.44-1.379 3.32l-8.693 8.661c-.873.87-2.053 1.36-3.285 1.367l-4.721.024c-1.226.006-2.4.492-3.272 1.353zm18.967 10.16v-2.28c0-1.157.937-2.095 2.094-2.095h.694c.9 0 1.768.339 2.43.948.574.528 1.463.504 2.008-.054l.432-.444c.882-.904 2.092-1.414 3.355-1.414h1.574c1.29 0 2.523.532 3.409 1.47l.522.554c1.066 1.13 1.049 2.9-.04 4.01l-4.019 4.09c-.88.898-2.086 1.404-3.344 1.404h-3.164c-1.383 0-2.696-.611-3.587-1.67l-1.264-1.502c-.71-.845-1.1-1.913-1.1-3.018zM455.56 291.83l-3.293 3.468c-.827.871-1.288 2.027-1.288 3.228v7.733c0 1.231-.484 2.413-1.348 3.29l-1.814 1.841c-1.56 1.585-4.111 1.605-5.696.044l-.049-.049-1.527-1.556c-.86-.877-1.342-2.056-1.342-3.284v-4.158c0-1.124.404-2.21 1.138-3.062l.665-.771c.735-.851 1.139-1.938 1.139-3.062v-4.278c0-1.248.497-2.445 1.383-3.325l3.687-3.663.033-.034 4.101-4.159c.988-1.002 2.602-1.013 3.604-.025l.028.028.484.493c.853.868 1.335 2.033 1.345 3.25l.038 4.786c.01 1.214-.452 2.384-1.288 3.265zm113.99-26.222c-.755-.788-.754-2.03.003-2.816l.302-.315c.671-.697 1.736-.836 2.563-.333l.294.178c.734.446 1.575.681 2.434.681h8.265c1.135 0 2.231.412 3.086 1.16l.759.664c.854.747 1.951 1.16 3.086 1.16h11.128c.488 0 .884.395.884.884 0 .225-.086.442-.24.606l-.02.02c-.885.94-2.119 1.472-3.41 1.472H586.82c-1.034 0-2.038-.35-2.847-.993-.81-.643-1.814-.991-2.848-.988l-8.274.024c-1.246.004-2.44-.504-3.302-1.404zm26.09-32.72c-.625.57-1.44.886-2.285.886h-.635c-1.076 0-1.948.872-1.948 1.948v.842c0 1.288.53 2.52 1.466 3.405l1.284 1.214c.442.418.461 1.115.043 1.556l-.006.007c-.493.513-.769 1.198-.769 1.91v3.575c0 1.272-.517 2.49-1.432 3.373l-3.89 3.755c-.874.843-2.041 1.314-3.256 1.314h-1.958c-1.134 0-2.23-.411-3.084-1.158l-.96-.839c-1.02-.89-1.604-2.177-1.604-3.53v-.843c0-1.264-.554-2.463-1.516-3.282-.962-.818-1.516-2.018-1.516-3.281v-.895c0-1.39 1.082-2.54 2.469-2.624l.602-.037c1.198-.073 2.323-.603 3.142-1.481l8.558-9.174c1.45-1.554 3.884-1.639 5.437-.19l.013.013 1.858 1.749c.49.461.513 1.232.051 1.722-.02.022-.042.044-.065.064zm-1.334-44.693v-.398c0-1.272.517-2.49 1.432-3.373l.671-.647c.99-.955 2.52-1.07 3.64-.274l.262.185c.789.56.974 1.652.415 2.44-.053.075-.113.146-.177.212l-.463.473c-.623.636-.972 1.491-.972 2.382 0 .767-.622 1.389-1.39 1.389h-1.03c-1.319 0-2.388-1.07-2.388-2.389zm14.931 76.163c.66 0 1.193.534 1.193 1.193v.305c0 .957-.389 1.873-1.078 2.538l-3.04 2.936c-.474.457-1.107.713-1.766.713-.567 0-1.026-.46-1.026-1.027v-.355c0-.889.333-1.745.935-2.399l2.782-3.026c.514-.56 1.24-.878 2-.878zm51.172 91.907l-2.98 2.852c-.872.835-2.033 1.301-3.24 1.301h-.136c-1.237 0-2.368-.697-2.922-1.802l-1.81-3.606c-.328-.653-.499-1.373-.499-2.103v-1.697c0-.856.694-1.55 1.55-1.55h.085c.819 0 1.491.647 1.522 1.465.032.818.704 1.465 1.523 1.465h3.538c1.223 0 2.397-.478 3.272-1.33l.073-.072c.34-.331.884-.324 1.215.016.154.158.242.37.244.59l.01 1.037c.014 1.296-.51 2.539-1.445 3.434zm7.688-28.727l-6.11 5.828c-.928.885-1.453 2.11-1.453 3.392v2.54c0 1.227-.48 2.405-1.339 3.28l-3.534 3.61c-.607.62-1.601.63-2.22.023l-.044-.044c-.715-.758-1.711-1.187-2.754-1.187h-7.275c-1.615 0-2.925-1.31-2.925-2.925v-1.027c0-1.217-.473-2.387-1.32-3.261l-1.367-1.411c-.847-.875-1.32-2.044-1.32-3.261v-1.511c0-.454-.368-.821-.821-.821-.225 0-.44.092-.595.255-.782.822-2.082.856-2.905.075l-3.949-3.744c-.87-.826-2.025-1.286-3.225-1.286h-2.378c-.998 0-1.969.318-2.773.908l-.234.172c-.804.59-1.775.907-2.772.907h-5.944c-1.257 0-2.462.505-3.343 1.401l-8.013 8.15c-.881.895-2.085 1.4-3.342 1.4h-6.46c-1.294 0-2.343-1.05-2.343-2.344v-.31c0-1.298.537-2.537 1.485-3.424l2.041-1.91c.948-.885 1.485-2.125 1.485-3.422v-4.483c0-1.328-.563-2.593-1.55-3.482l-6.209-5.594c-.22-.198-.237-.536-.04-.756.102-.112.247-.177.399-.177.77 0 1.393-.624 1.393-1.393v-6.539c0-1.188.451-2.332 1.262-3.2l5.883-6.297c.887-.949 2.127-1.487 3.426-1.487h.732c1.248 0 2.444-.498 3.324-1.383l10.104-10.16c.902-.908 2.357-.95 3.31-.097.952.853 2.406.806 3.302-.105l3.722-3.784c.88-.896 2.085-1.401 3.342-1.401h7.327c1.852 0 3.355 1.502 3.355 3.355v1.453c0 1.22.475 2.391 1.324 3.266l1.908 1.965c1.212 1.248 3.206 1.277 4.454.065.027-.025.053-.051.078-.078l.953-.992c.838-.873 1.306-2.037 1.306-3.247v-6.577c0-.644.522-1.166 1.166-1.166.316 0 .618.129.838.356l.687.71c.845.875 1.317 2.043 1.317 3.258v.975c0 1.252.5 2.451 1.39 3.332l1.227 1.214c.89.88 1.39 2.08 1.39 3.332v2.768c0 1.325.56 2.587 1.543 3.476l8.096 7.328c.896.81 1.407 1.961 1.407 3.17v.084c0 1.166.434 2.29 1.218 3.153l2.578 2.836c.783.86 1.217 1.981 1.22 3.144l.018 9.704c.002 1.285-.523 2.514-1.453 3.4zm-9.616-57.032h-1.336c-1.312 0-2.564-.55-3.452-1.516l-2.772-3.017c-.888-.966-2.14-1.516-3.451-1.516h-.892c-1.105 0-2 .896-2 2 0 1.105-.896 2-2.001 2h-2.518c-.828 0-1.5-.67-1.5-1.498s-.67-1.5-1.498-1.5h-3.64c-.445 0-.805-.36-.805-.804 0-.229.098-.447.269-.6.796-.71.865-1.931.155-2.727-.037-.042-.077-.083-.118-.122l-3.7-3.478c-.87-.818-2.017-1.273-3.21-1.273h-1.61c-.548 0-.993-.444-.993-.993 0-.267.108-.522.298-.709l.81-.794c.59-.581.924-1.375.924-2.204 0-.716-.58-1.297-1.296-1.297h-2.23c-.83 0-1.503-.673-1.503-1.503 0-.83.673-1.504 1.504-1.504h5.129c1.326 0 2.402 1.076 2.402 2.403 0 .58.47 1.05 1.05 1.05.265 0 .52-.1.714-.28l.798-.737c.924-.855 2.353-.845 3.265.023l.264.251c.871.829 2.028 1.291 3.23 1.291h.969c1.198 0 2.351.46 3.222 1.283l5.839 5.527c.808.765 1.88 1.192 2.993 1.192h.27c.809 0 1.464.656 1.464 1.465 0 .936.379 1.833 1.05 2.485l4.867 4.735c.546.53.558 1.404.027 1.95-.26.266-.616.417-.988.417zm2.158-18.81c.656-.649 1.713-.649 2.37 0l1.313 1.3c.891.88 1.392 2.08 1.392 3.333v.535c0 1.194-.455 2.343-1.273 3.212l-1.194 1.27c-.886.941-2.121 1.475-3.414 1.475h-1.91c-.786 0-1.423-.637-1.423-1.423 0-.822.593-1.524 1.403-1.663l.53-.09c.99-.17 1.9-.653 2.595-1.38l.433-.452c.83-.868.802-2.245-.064-3.078l-.743-.714c-.646-.622-.666-1.65-.045-2.296l.03-.03zm-18.33-114.71l-.617-.608c-.775-.762-2.019-.76-2.79.005-.689.682-.694 1.793-.012 2.481.046.047.095.09.145.131l2.758 2.224c1.052.848 1.664 2.127 1.664 3.479v1.147c0 .547-.443.99-.99.99-.547 0-.99.444-.99.99v3.07c0 1.127-.405 2.215-1.141 3.066l-.997 1.154c-.89 1.03-2.185 1.622-3.546 1.622h-1.764c-.82 0-1.484.664-1.484 1.483 0 .82-.664 1.483-1.483 1.483h-.59c-1.242 0-2.432-.492-3.31-1.368l-.047-.047c-.784-.782-2.053-.781-2.837.001l-3.022 3.019c-.369.369-.967.368-1.336 0-.176-.178-.276-.418-.276-.668v-.31c0-1.26.506-2.466 1.405-3.347l1.908-1.872c.877-.86 2.055-1.341 3.283-1.341h2.056c1.295 0 2.532-.536 3.418-1.48l4.516-4.811c.816-.87 1.27-2.016 1.27-3.208v-8.182c0-1.289.53-2.52 1.466-3.406l.042-.039c.936-.885 1.466-2.117 1.466-3.405v-1.502c0-.512.415-.927.927-.927.32 0 .618.165.788.437l.794 1.276c.572.919 1.578 1.477 2.66 1.477 1.115 0 2.184.44 2.976 1.226l.251.25c.817.81.823 2.128.013 2.945l-.008.008-2.55 2.544c-1.109 1.105-2.901 1.111-4.016.013zM703.56 359.38c-.72 0-1.304.585-1.304 1.305v.484c0 1.146-.448 2.247-1.249 3.068l-1.26 1.293c-1.384 1.419-3.655 1.447-5.074.064l-.004-.004-.14-.137c-1.457-1.425-1.483-3.762-.057-5.219l.069-.07 2.887-2.797c.636-.617 1.489-.963 2.375-.963.764 0 1.383-.619 1.383-1.382v-.106c0-.822.666-1.488 1.488-1.488h.525c1.112 0 2.014-.901 2.014-2.013v-.255c0-.515.417-.932.932-.932.249 0 .487.1.662.277l.923.933c1.394 1.41 1.388 3.68-.012 5.083l-1.932 1.936c-.59.591-1.39.923-2.226.923zm12.125-12.585c-.813 0-1.473.66-1.473 1.473v1.59c0 .69-.181 1.367-.526 1.964-.326.564-.928.911-1.579.911h-.387c-.794 0-1.439-.644-1.439-1.439v-.524c0-1.22-.635-2.352-1.675-2.988l-.758-.463c-.6-.366-.79-1.15-.423-1.749l.05-.076c.517-.723.794-1.59.794-2.479v-3.368c0-1.237-.489-2.424-1.36-3.302l-1.261-1.271c-.426-.429-.423-1.121.006-1.546l.004-.005c.43-.422 1.121-.415 1.543.015l.006.007 3.096 3.209c.585.606.912 1.416.912 2.258 0 .84.34 1.644.941 2.23l1.11 1.081c.4.39 1.027.42 1.464.074l.13-.103c.41-.327.92-.505 1.445-.505.45 0 .814.362.818.81l.023 2.723c.007.807-.642 1.466-1.448 1.473h-.013zm12.762-275.471h-1.602c-1.244 0-2.437-.495-3.317-1.375l-3.107-3.111c-.437-.437-1.144-.437-1.581 0-.21.209-.328.493-.328.79 0 1.492-1.21 2.701-2.701 2.701h-3.869c-1.157 0-2.095.938-2.095 2.095 0 .52.193 1.021.542 1.406l.517.571c.65.718.595 1.827-.123 2.477-.322.291-.742.453-1.177.453h-2.055c-1.216 0-2.385.473-3.26 1.319l-5.547 5.367c-.874.846-2.042 1.318-3.259 1.318h-6.85c-1.22 0-2.39.475-3.264 1.323L681.1 90.8c-.911.883-1.425 2.097-1.425 3.366v3.362c0 .923-.357 1.81-.997 2.476-.64.666-.998 1.553-.998 2.477v1.746c0 1.232-.485 2.415-1.35 3.292l-6.278 6.364c-.88.893-2.082 1.395-3.337 1.395h-.017c-1.093 0-1.978-.885-1.978-1.978v-12.077c0-1.24.491-2.43 1.366-3.308l5.065-5.084.003-.003 7.126-7.14c.877-.879 1.37-2.07 1.37-3.311V80.74c0-1.367-1.11-2.476-2.477-2.476h-.522c-1.251 0-2.45.5-3.331 1.39l-6.882 6.953-.03.031-2.148 2.21c-.883.91-2.096 1.422-3.362 1.422h-3.45c-.923 0-1.672-.749-1.672-1.672 0-.418-.34-.757-.757-.757-.184 0-.362.067-.5.188l-2.335 2.052c-.856.751-1.956 1.166-3.094 1.166h-8.239c-1.222 0-2.395.477-3.27 1.33l-11.399 11.104c-.592.578-.605 1.527-.027 2.12.282.289.669.452 1.073.452h1.917c1.133 0 2.22-.447 3.024-1.245.642-.636 1.678-.632 2.314.01.03.03.058.061.085.093l.193.227c.72.848 1.114 1.923 1.114 3.034v12.148c0 1.217-.473 2.386-1.32 3.26l-11.73 12.113c-.882.912-2.097 1.427-3.366 1.427h-2.346c-1.195 0-2.345.456-3.215 1.276l-6.418 6.049c-.94.886-1.473 2.12-1.473 3.411v1.268c0 1.663 1.348 3.01 3.01 3.01 1.663 0 3.01 1.348 3.01 3.01v3.387c0 1.194-.455 2.342-1.273 3.212l-2.376 2.525c-.574.61-1.533.64-2.143.065-.035-.032-.067-.066-.099-.101-.709-.805-1.1-1.841-1.1-2.914v-4.68c0-.83-.674-1.504-1.505-1.504-.832 0-1.505-.674-1.505-1.505v-2.081c0-.784-.636-1.42-1.42-1.42-.906 0-1.773.372-2.399 1.027l-.585.612c-.346.363-.921.376-1.284.03-.18-.172-.28-.41-.28-.658v-2.573c0-.787-.639-1.424-1.425-1.424-.388 0-.758.157-1.027.437l-1.068 1.11c-.883.92-2.104 1.44-3.379 1.44h-2.255c-.635 0-1.15.514-1.15 1.149 0 .325.138.634.379.852l.87.788c.863.78 1.984 1.213 3.147 1.213h.673c1.238 0 2.424.49 3.302 1.36l.006.006c.762.756.772 1.985.022 2.754l-.332.34c-.932.956-.914 2.485.039 3.42l2.778 2.722c.899.882 1.406 2.088 1.406 3.348v7.761c0 1.242-.493 2.433-1.37 3.311l-11.627 11.653c-.88.88-2.073 1.376-3.318 1.376h-3.254c-1.17 0-2.299.438-3.162 1.227l-2.619 2.393c-.972.888-1.525 2.143-1.525 3.46v.99c0 .703-.571 1.274-1.275 1.274-.336 0-.658-.133-.897-.369l-.116-.115c-1.267-1.254-3.307-1.252-4.572.003l-.532.529c-1.559 1.547-1.577 4.063-.04 5.633l3.11 3.179c.857.876 1.337 2.052 1.337 3.278v6.864c0 1.244-.494 2.437-1.373 3.316l-1.701 1.7c-1.699 1.697-4.451 1.698-6.151.002l-3.242-3.236c-.791-.789-2.071-.788-2.86.003-.379.379-.591.893-.591 1.428v2.852c0 1.291.533 2.526 1.473 3.411l5.017 4.728c.94.885 1.473 2.12 1.473 3.411v1.226c0 .781.31 1.53.86 2.084.551.554.86 1.303.86 2.084v.284c0 .963.385 1.885 1.07 2.562l.33.328c.54.535.845 1.264.845 2.024 0 .764.29 1.5.813 2.057l1.708 1.824c.773.825 1.203 1.913 1.203 3.043 0 1.127-.445 2.208-1.239 3.008l-.227.23c-.808.814-2.122.819-2.936.011l-.005-.004-4.158-4.149c-.881-.88-1.377-2.073-1.377-3.318v-1.316c0-1.234-.486-2.418-1.354-3.295l-6.528-6.605c-.883-.893-1.37-2.103-1.353-3.36l.035-2.554c.009-.625.517-1.126 1.142-1.126.266 0 .482-.216.482-.483 0-.124-.047-.243-.133-.333l-.697-.73c-.83-.872-1.295-2.03-1.295-3.235V218.25c0-1.263-.509-2.472-1.413-3.354l-1.793-1.751c-.881-.86-2.288-.862-3.17-.003-.37.36-.963.351-1.323-.019-.17-.174-.264-.408-.264-.652v-5.292c0-1.249-.498-2.446-1.385-3.326l-5.409-5.372c-1.828-1.815-4.778-1.815-6.606 0l-3.147 3.125c-.886.88-1.384 2.077-1.384 3.326v2.196c0 1.256-.504 2.46-1.4 3.341l-4.167 4.1c-.895.881-1.4 2.085-1.4 3.341v4.757c0 1.273-.517 2.492-1.434 3.375l-5.283 5.09c-1.708 1.646-4.408 1.658-6.13.028l-1.614-1.526c-.935-.885-1.465-2.117-1.465-3.405v-6.887c0-1.203-.463-2.36-1.292-3.232l-1.398-1.468c-.83-.872-1.292-2.029-1.292-3.232v-12.187c0-.537-.436-.973-.974-.973-.259 0-.508.103-.69.288-.905.911-2.378.917-3.29.012l-.025-.026-5.63-5.766c-.882-.903-2.092-1.412-3.354-1.412h-7.373c-1.214 0-2.381-.471-3.255-1.314l-3.502-3.38c-.874-.843-2.04-1.314-3.255-1.314h-4.753c-1.25 0-2.45-.5-3.33-1.388l-5.234-5.284c-.845-.853-1.995-1.332-3.194-1.332-1.036 0-1.875.84-1.875 1.875v3.64c0 1.374 1.115 2.49 2.49 2.49 1.375 0 2.49 1.114 2.49 2.489v1.57c0 1.63 1.32 2.95 2.949 2.95h1.12c1.177 0 2.31-.442 3.176-1.24l.806-.742c1.026-.945 2.624-.884 3.575.137l.33.354c.887.951 2.129 1.491 3.43 1.491h.755c1.544 0 2.795 1.252 2.795 2.795v3.57c0 1.269-.514 2.484-1.426 3.367l-8.218 7.957c-.875.846-2.044 1.32-3.26 1.32h-1.852c-1.296 0-2.533.536-3.42 1.48l-5.667 6.045c-.886.945-2.124 1.482-3.42 1.482h-1.31c-1.845 0-3.341-1.496-3.341-3.341v-6.834c0-1.235-.487-2.42-1.355-3.297l-3.134-3.169c-.88-.89-2.081-1.39-3.333-1.39h-.086c-1.128 0-2.042-.915-2.042-2.043v-3.373c0-1.17-.438-2.299-1.228-3.163l-3.565-3.9c-.79-.864-1.227-1.993-1.227-3.163v-5.373c0-.549-.445-.993-.994-.993-.548 0-.993.444-.993.993v11.194c0 1.291.533 2.525 1.473 3.411l1.036.976c.94.886 1.473 2.12 1.473 3.412v2.949c0 1.243.494 2.436 1.374 3.315l.236.236c.88.88 1.374 2.072 1.374 3.316v.337c0 1.226.48 2.403 1.338 3.28l7.638 7.803c.63.643.983 1.508.983 2.408v.115c0 .712.577 1.29 1.29 1.29.83 0 1.63-.308 2.247-.865l1.024-.925c.861-.779 1.981-1.21 3.142-1.21h5.72c1.939 0 3.51 1.572 3.51 3.51v1.503c0 1.281-.524 2.507-1.451 3.391l-4.063 3.878c-.927.884-1.452 2.11-1.452 3.39v2.19c0 1.258-.506 2.465-1.406 3.346l-16.108 15.794c-.9.881-1.406 2.087-1.406 3.347v11.253c0 1.273.518 2.49 1.433 3.374l.118.113c.916.884 1.433 2.102 1.433 3.374v10.45c0 1.104-.389 2.172-1.1 3.017l-.402.479c-.89 1.059-2.203 1.67-3.587 1.67h-.848c-1.248 0-2.443.498-3.323 1.382l-2.734 2.747c-.946.952-.942 2.49.01 3.437.033.033.068.066.103.098l.349.308c1.006.89 1.582 2.168 1.582 3.511v4.516c0 1.662-1.347 3.01-3.01 3.01h-1.311c-.938 0-1.699.76-1.699 1.698v.089c0 1.034.396 2.029 1.105 2.781.614.65.595 1.673-.043 2.3l-14.013 13.77c-.877.861-2.056 1.344-3.285 1.344h-1.474c-1.29 0-2.52.546-3.386 1.504-.865.957-2.095 1.504-3.385 1.504h-3.092c-1.22 0-2.209-.99-2.209-2.209v-.648c0-1.008.357-1.983 1.007-2.753.56-.665.492-1.655-.155-2.237l-1.294-1.164c-.988-.889-1.553-2.156-1.553-3.485v-3.682c0-1.097-.385-2.16-1.087-3.002l-.81-.97c-.702-.843-1.087-1.906-1.087-3.003v-8.865c0-1.3-.54-2.543-1.493-3.43l-6.973-6.494c-.952-.887-1.493-2.13-1.493-3.43v-5.826c0-1.283.544-2.505 1.496-3.363.953-.859 1.497-2.08 1.497-3.363v-16.675c0-1.255-.503-2.457-1.397-3.338l-6.001-5.917c-1.363-1.343-1.379-3.537-.035-4.9l.007-.007 1.088-1.098c.87-.878 1.358-2.064 1.358-3.3v-1.502c0-1.895-1.536-3.432-3.431-3.432h-5.532c-1.647 0-2.982-1.335-2.982-2.982 0-1.647-1.335-2.982-2.982-2.982h-1.445c-1.25 0-2.45.5-3.33 1.389l-3.157 3.187c-.88.888-2.08 1.388-3.33 1.388h-12.06c-1.292 0-2.527-.533-3.412-1.474l-3.848-4.087c-.819-.87-1.275-2.019-1.275-3.213V231.9c0-1.279-.522-2.502-1.446-3.386l-8.698-8.327c-1.388-1.328-1.458-3.522-.158-4.936l1.103-1.2c.795-.866 1.236-1.998 1.236-3.173v-8.284c0-1.007-.353-1.982-.998-2.756-.644-.773-.997-1.748-.997-2.755v-2.81c0-1.233.486-2.417 1.353-3.294l7.152-7.239c.88-.891 2.081-1.393 3.334-1.393h.059c1.113 0 2.016-.903 2.016-2.016v-7.755c0-1.34.573-2.615 1.574-3.504l5.118-4.55c.858-.762 1.966-1.183 3.114-1.183h5.563c1.275 0 2.494-.519 3.378-1.437l2.05-2.13c.883-.919 2.103-1.438 3.377-1.438h16.922c1.2 0 2.356.461 3.227 1.287l.105.1c.785.746.818 1.986.073 2.772l-.038.039-.282.28c-.882.88-1.378 2.074-1.378 3.32v.133c0 1.148.93 2.079 2.079 2.079h3.125c1.208 0 2.369.466 3.241 1.301l2.59 2.48c.816.78 1.901 1.215 3.03 1.215 1.125 0 2.204.451 2.994 1.252l.308.313c.35.354.921.358 1.276.008.171-.17.268-.4.268-.642v-4.31c0-.893.724-1.617 1.617-1.617 1.037 0 2.033.403 2.778 1.125l2.636 2.551c.874.847 2.043 1.32 3.26 1.32h9.211c.966 0 1.897-.355 2.617-.998s1.652-.999 2.617-.999h1.26c1.179 0 2.315-.444 3.18-1.244l5.146-4.754c.96-.888 1.506-2.136 1.506-3.443v-.758c0-1.552-1.258-2.81-2.81-2.81h-5.709c-1.21 0-2.375.469-3.248 1.308l-.11.105c-.817.786-2.112.773-2.913-.028l-4.958-4.955c-.742-.742-1.159-1.747-1.159-2.796 0-.905.734-1.638 1.638-1.638h2.506c1.24 0 2.43-.492 3.308-1.367l3.276-3.265c.879-.876 2.069-1.367 3.31-1.367h4.013c.81 0 1.578.367 2.086.998.509.632 1.276.999 2.086.999h3.96c1.267 0 2.48-.513 3.363-1.422l.39-.402c.868-.893.847-2.32-.046-3.186-.065-.063-.133-.122-.205-.177l-1.948-1.481c-.156-.119-.304-.247-.444-.384l-2.646-2.594c-.876-.86-2.054-1.34-3.281-1.34h-.867c-1.252 0-2.451.502-3.329 1.395-.731.744-1.928.755-2.672.024l-.047-.048-.187-.197c-.826-.87-1.286-2.026-1.286-3.226v-.045c0-1.057-.858-1.915-1.915-1.915h-.434c-.902 0-1.633.732-1.633 1.634 0 1.054-.38 2.072-1.07 2.869l-2.765 3.192c-.738.852-1.145 1.942-1.145 3.069v1.277c0 1.671-1.354 3.026-3.025 3.026h-3.547c-1.067 0-2.103.364-2.935 1.033l-1.675 1.346c-1.108.89-1.752 2.233-1.752 3.654v3.809c0 .469-.38.849-.85.849-.237 0-.464-.1-.625-.275l-.242-.264c-.793-.864-1.233-1.995-1.233-3.168v-.556c0-.824-.668-1.492-1.492-1.492s-1.492-.668-1.492-1.493v-2.03c0-1.298-.539-2.539-1.488-3.425l-.06-.056c-.95-.887-1.488-2.127-1.488-3.426v-.267c0-1.273-1.031-2.304-2.304-2.304h-1.86c-1.192 0-2.34-.454-3.209-1.27l-1.507-1.415-.008-.007-1.554-1.466c-.358-.338-.923-.321-1.26.037-.156.165-.243.384-.243.611v.16c0 1.222.477 2.396 1.33 3.272l7.124 7.306c.24.246.506.465.793.652l2.972 1.942c.452.295.724.798.724 1.337 0 .478-.387.865-.865.865h-.632c-.826 0-1.496.67-1.496 1.496v.155c0 1.064-.39 2.09-1.094 2.887l-.398.45c-.313.352-.852.385-1.205.073-.183-.162-.287-.395-.287-.64v-2.407c0-1.326-.562-2.59-1.547-3.48l-4.14-3.735c-.569-.514-1.308-.798-2.075-.798-.658 0-1.19-.533-1.19-1.191v-.538c0-1.096-.484-2.137-1.322-2.844l-1.6-1.35c-.846-.713-1.917-1.105-3.023-1.105h-.969c-1.204 0-2.362.464-3.234 1.295l-.796.758c-.556.53-1.436.509-1.965-.047l-.005-.005c-.612-.648-1.464-1.015-2.356-1.015h-1.17c-1.366 0-2.472 1.106-2.472 2.472v.576c0 1.216-.473 2.385-1.318 3.259l-3.333 3.446c-.845.874-1.318 2.043-1.318 3.259v.928c0 1.388-.615 2.704-1.68 3.595l-.454.38c-.844.706-1.908 1.093-3.008 1.093h-1.898c-1.354 0-2.64.598-3.512 1.634l-.65.77c-.146.174-.406.197-.58.05-.092-.078-.146-.193-.146-.315 0-.623-.505-1.128-1.128-1.128h-.708c-1.175 0-2.302-.468-3.131-1.301l-1.716-1.725c-.826-.83-1.29-1.953-1.29-3.124 0-1.168.477-2.285 1.32-3.094l1.22-1.171c.922-.884 1.443-2.106 1.443-3.382v-.371c0-1.012-.82-1.832-1.832-1.832-.436 0-.79-.353-.79-.789 0-.201.078-.395.216-.542l1.139-1.204c.885-.936 2.117-1.467 3.406-1.467h3.35c1.004 0 1.974.355 2.74 1.003.767.647 1.738 1.002 2.741 1.002h.977c.93 0 1.838-.276 2.61-.793l.106-.071c.806-.54 1.29-1.447 1.29-2.417v-2.983c0-1.388-.615-2.704-1.68-3.595l-1.476-1.235c-.684-.573-1.547-.886-2.439-.886-.762 0-1.38-.618-1.38-1.38v-.124c0-.831.673-1.504 1.504-1.504h.44c1.026 0 2.024-.337 2.84-.96l.15-.113c.816-.622 1.814-.959 2.84-.959 1.01 0 1.976-.416 2.669-1.15l3.943-4.178.105-.115 1.217-1.379c.756-.856 1.174-1.96 1.174-3.102v-1.157c0-1.619 1.312-2.93 2.93-2.93h4.76c.782 0 1.55-.208 2.226-.601.639-.372 1.032-1.056 1.032-1.795v-6.687c0-1.216.472-2.384 1.318-3.258l.178-.185c.334-.345.885-.355 1.231-.02.17.164.265.39.265.625v1.735c0 .656.532 1.187 1.187 1.187.762 0 1.494.294 2.044.82l3.004 2.875c.872.835 2.033 1.301 3.241 1.301h.715c1.1 0 2.166-.387 3.01-1.094l.087-.073c.79-.662 1.953-.615 2.688.108l.897.881c.231.227.603.224.83-.007.108-.11.168-.257.168-.411 0-.774.627-1.4 1.4-1.4h.14c.85 0 1.54-.69 1.54-1.54v-3.476c0-1.651 1.337-2.989 2.988-2.989 1.65 0 2.988-1.338 2.988-2.988v-.016c0-1.659 1.345-3.004 3.004-3.004h1.815c1.283 0 2.51-.526 3.395-1.455l.52-.546c.45-.473.432-1.223-.042-1.674-.22-.21-.512-.327-.816-.327h-5.317c-1.368 0-2.667.598-3.558 1.636l-.7.815c-.262.307-.724.342-1.03.08-.162-.14-.255-.342-.255-.556v-.478c0-.827-.67-1.497-1.496-1.497-.827 0-1.497-.67-1.497-1.496v-2.852c0-1.26.507-2.467 1.408-3.35l6.297-6.167.07-.068 1.083-1.017c.245-.23.257-.614.027-.858-.115-.123-.275-.192-.443-.192h-5.23c-.815 0-1.6.309-2.197.865l-.901.838-.055.052-4.64 4.46c-.92.884-1.439 2.104-1.439 3.38v2.928c0 1.241.493 2.432 1.37 3.311l.357.358c.561.562.56 1.473-.002 2.034l-.01.009-1.024 1.004-.023.022-2.536 2.52c-.714.71-1.116 1.675-1.116 2.682 0 1.006-.403 1.971-1.118 2.68l-1.178 1.166c-.934.924-2.439.916-3.363-.017l-.004-.004-1.665-1.69-.016-.017-3.253-3.27c-.978-.983-2.563-1-3.563-.041l-.442.423c-.872.838-2.035 1.306-3.245 1.306h-3.537c-1.366 0-2.473-1.107-2.473-2.473v-.562c0-1.224.48-2.4 1.334-3.276l1.293-1.323c.84-.86.824-2.236-.034-3.076-.853-.837-.867-2.207-.03-3.06l.006-.007 2.798-2.829c.88-.89 2.08-1.391 3.333-1.391h.133c1.154 0 2.09-.936 2.09-2.09v-.425c0-1.375 1.114-2.49 2.49-2.49 1.374 0 2.489-1.115 2.489-2.49v-1.447c0-1.253.501-2.454 1.392-3.334l8.487-8.387c.878-.867 2.061-1.353 3.295-1.353h.811c1.344 0 2.624-.577 3.513-1.585l1.622-1.836c.89-1.007 2.17-1.584 3.513-1.584h7.145c1.258 0 2.453.549 3.272 1.504.819.954 2.014 1.504 3.271 1.504h.668c1.26 0 2.466.506 3.347 1.405l.185.189c.881.899 2.088 1.405 3.347 1.405h5.689c1.206 0 2.366.465 3.239 1.3l2.599 2.484c1.327 1.268 1.375 3.373.106 4.7-.038.04-.077.08-.117.117L427.279 65c-.87.824-2.024 1.284-3.224 1.284h-.037c-1.22 0-2.39-.482-3.257-1.342l-1.212-1.203c-.86-.854-2.25-.855-3.112 0l-.13.129c-.324.321-.327.844-.005 1.169.155.156.366.244.587.244 1.109 0 2.008.9 2.008 2.008v1.896c0 1.222.477 2.395 1.329 3.27l.249.256c.836.859 2.21.877 3.07.04.02-.02.042-.041.062-.063l3.038-3.213.053-.054 4.614-4.724c.882-.903 2.09-1.412 3.353-1.412h1.82c1.291 0 2.338-1.047 2.338-2.339 0-.562.456-1.018 1.018-1.018.257 0 .505.098.694.273l.61.568c1.295 1.205 3.312 1.167 4.56-.086l4.05-4.066c.88-.884 2.075-1.38 3.322-1.38h15.506c.638 0 1.155-.517 1.155-1.155 0-.321-.133-.628-.368-.846-.467-.435-.493-1.166-.058-1.633.218-.235.525-.368.845-.368h6.336c1.223 0 2.397.478 3.273 1.332l2.264 2.208c.844.824 2.197.807 3.022-.038.389-.4.607-.935.607-1.492v-3.542c0-1.188.45-2.33 1.26-3.199l1.65-1.767c.886-.95 2.127-1.49 3.427-1.49h1.282c1.834 0 3.32 1.487 3.32 3.32v11.65c0 1.257-.505 2.46-1.4 3.342L492.51 64.2c-.243.239-.246.629-.007.871.116.118.274.184.439.184.968 0 1.901-.362 2.616-1.014l1.499-1.369c.972-.888 1.527-2.144 1.527-3.461V47.902c0-1.318.555-2.576 1.53-3.464l1.024-.934c.592-.54 1.508-.497 2.047.095.243.267.378.615.378.976v1.672c0 1.042.347 2.055.987 2.877l.505.65c.283.364.807.43 1.17.146.203-.158.322-.4.322-.658V48.07c0-1.177-.442-2.31-1.24-3.176l-.05-.055c-.712-.773-.662-1.976.11-2.688h.002l.734-.677c.839-.77 1.936-1.199 3.076-1.199 1.131 0 2.214.462 2.997 1.28l1.066 1.112c.836.873 1.303 2.034 1.303 3.243v2.247c0 .487.395.882.882.882.227 0 .446-.088.61-.245l.049-.047c.922-.884 1.443-2.106 1.443-3.383V40.13c0-1.206.466-2.366 1.3-3.238l3.009-3.149c.884-.925 2.109-1.448 3.388-1.448h3.746c1.242 0 2.433-.493 3.311-1.37l3.276-3.268c.878-.877 2.07-1.37 3.31-1.37h4.483c1.302 0 2.545.542 3.432 1.495l1.16 1.247c.71.764 1.9.823 2.683.132l1.337-1.18c.046-.04.09-.081.135-.123l4.484-4.277c.871-.832 2.03-1.296 3.235-1.296h1.384c1.671 0 3.025 1.355 3.025 3.025 0 1.671 1.355 3.026 3.026 3.026h9.505c1.325 0 2.4 1.074 2.4 2.399v.457c0 1.243-.494 2.435-1.373 3.314l-10.28 10.285c-.542.543-.542 1.422 0 1.965.128.127.28.229.446.298 1.156.484 2.489.224 3.377-.66l6.828-6.789c.878-.873 2.066-1.363 3.305-1.363h7.166c1.324 0 2.587.56 3.476 1.543l.993 1.097c.784.867 1.899 1.362 3.068 1.362 1.014 0 1.836-.822 1.836-1.836v-1.15c0-1.65 1.337-2.987 2.986-2.987h2.215c1.255 0 2.459.504 3.34 1.399l3.74 3.799c.844.856.855 2.226.025 3.096-.824.864-.798 2.23.059 3.063l1.691 1.644c1.652 1.605 4.291 1.57 5.9-.078l1.532-1.57c.882-.903 2.091-1.412 3.354-1.412h7.096c1.64 0 2.97-1.33 2.97-2.97 0-1.64 1.329-2.969 2.968-2.969h4.335c1.253 0 2.454.502 3.335 1.393l1.982 2.007c.813.823 2.136.841 2.971.04l.145-.138c.873-.838 2.035-1.305 3.245-1.305h.016c1.05 0 1.9.85 1.9 1.9v2.102c0 2.21 1.792 4.002 4.002 4.002h11.403c1.207 0 2.368.466 3.24 1.301l2.282 2.183c.745.713 1.928.687 2.64-.059l.023-.023c.822-.89 1.98-1.396 3.19-1.396h6.566c1.273 0 2.49.518 3.374 1.434l2.051 2.128c.884.916 2.102 1.434 3.375 1.434h.82c1.553 0 2.812-1.26 2.812-2.812v-.17c0-1.647 1.335-2.982 2.982-2.982h6.197c1.309 0 2.557.547 3.445 1.508l1.834 1.988c.887.962 2.136 1.508 3.445 1.508h4.211c1.523 0 2.757 1.235 2.757 2.758v.99c0 1.14.415 2.24 1.166 3.094l.526.6c.27.306.736.336 1.042.067.16-.14.25-.342.25-.554 0-1.082.877-1.958 1.958-1.958h2.08c1.176 0 2.308.44 3.173 1.236l.564.518c.989.91 1.054 2.448.145 3.436-.035.039-.072.076-.11.112l-3.56 3.407c-.873.835-2.034 1.3-3.241 1.3z"/>
</svg>
